<svg width="30" height="30" viewBox="0 0 30 30" fill="none" xmlns="http://www.w3.org/2000/svg">
<path d="M3 0H27C27.7956 0 28.5587 0.31607 29.1213 0.87868C29.6839 1.44129 30 2.20435 30 3V18C30 18.7956 29.6839 19.5587 29.1213 20.1213C28.5587 20.6839 27.7956 21 27 21H19.5V27H24V30H16.5V21H13.5V30H6V27H10.5V21H3C2.20435 21 1.44129 20.6839 0.87868 20.1213C0.31607 19.5587 0 18.7956 0 18V3C0 2.20435 0.31607 1.44129 0.87868 0.87868C1.44129 0.31607 2.20435 0 3 0ZM3 3V9H13.5V3H3ZM3 18H13.5V12H3V18ZM27 18V12H16.5V18H27ZM27 3H16.5V9H27V3Z" fill="#444444"/>
</svg>
