<svg width="80" height="80" viewBox="0 0 80 80" fill="none" xmlns="http://www.w3.org/2000/svg">
<path d="M8 0H72C74.1217 0 76.1566 0.842854 77.6569 2.34315C79.1571 3.84344 80 5.87827 80 8V48C80 50.1217 79.1571 52.1566 77.6569 53.6569C76.1566 55.1571 74.1217 56 72 56H52V72H64V80H44V56H36V80H16V72H28V56H8C5.87827 56 3.84344 55.1571 2.34315 53.6569C0.842854 52.1566 0 50.1217 0 48V8C0 5.87827 0.842854 3.84344 2.34315 2.34315C3.84344 0.842854 5.87827 0 8 0ZM8 8V24H36V8H8ZM8 48H36V32H8V48ZM72 48V32H44V48H72ZM72 8H44V24H72V8Z" fill="#199958"/>
</svg>
