<svg width="198" height="165" viewBox="0 0 198 165" fill="none" xmlns="http://www.w3.org/2000/svg">
<path d="M78.375 150.386V156.234C78.375 161.069 90.1538 165 104.672 165C119.19 165 130.969 161.069 130.969 156.234V150.386C125.312 154.372 114.971 156.234 104.672 156.234C94.3723 156.234 84.0316 154.372 78.375 150.386ZM122.203 112.406C136.721 112.406 148.5 108.475 148.5 103.641C148.5 98.8058 136.721 94.875 122.203 94.875C107.685 94.875 95.9062 98.8058 95.9062 103.641C95.9062 108.475 107.685 112.406 122.203 112.406ZM78.375 136.019V143.086C78.375 147.921 90.1538 151.852 104.672 151.852C119.19 151.852 130.969 147.921 130.969 143.086V136.019C125.312 140.675 114.958 143.086 104.672 143.086C94.386 143.086 84.0316 140.675 78.375 136.019ZM135.352 137.525C143.2 136.005 148.5 133.184 148.5 129.937V124.089C145.322 126.335 140.652 127.869 135.352 128.814V137.525ZM104.672 116.789C90.1538 116.789 78.375 121.692 78.375 127.746C78.375 133.8 90.1538 138.703 104.672 138.703C119.19 138.703 130.969 133.8 130.969 127.746C130.969 121.692 119.19 116.789 104.672 116.789ZM134.708 124.5C142.926 123.021 148.5 120.117 148.5 116.789V110.941C143.638 114.379 135.283 116.228 126.49 116.666C130.53 118.624 133.503 121.254 134.708 124.5Z" fill="#27AE60"/>
<path d="M43.3125 0V19.1441C39.439 19.9824 35.7628 21.5579 32.4844 23.7847L18.9461 10.0547L10.0547 18.9523L23.7847 32.4844C21.5579 35.7628 19.9824 39.439 19.1441 43.3125H0V55.6875H19.1441C19.9671 59.6289 21.6067 63.2795 23.7847 66.5156L10.0547 80.0539L18.9523 88.9453L32.4844 75.2152C34.3406 76.4527 36.3516 77.486 38.4801 78.309C37.7314 80.9696 37.125 83.754 37.125 86.625C37.125 103.69 50.9974 117.562 68.0625 117.562H75.2152C76.329 113.671 78.3337 109.42 80.6293 105.187H68.0625C57.8407 105.187 49.5 96.8467 49.5 86.625C49.5 76.4032 57.8407 68.0625 68.0625 68.0625H74.25V61.875C74.25 55.0564 79.7878 49.5247 86.0434 49.5L92.2309 49.8898L93.3941 44.6676C95.7144 33.1588 105.819 24.75 117.562 24.75C127.493 24.75 136.465 30.69 140.382 39.8351L142.114 44.0859L147.727 43.5043C147.993 43.4548 148.209 43.3125 148.5 43.3125C158.722 43.3125 167.038 51.678 167.062 61.4914L166.871 67.4809L171.703 68.6441C175.691 69.6694 179.224 71.9932 181.745 75.2491C184.266 78.5049 185.631 82.5073 185.625 86.625C185.625 96.8467 177.284 105.187 167.062 105.187H160.875C160.875 109.704 159.52 113.912 157.391 117.562H167.062C184.128 117.562 198 103.69 198 86.625C198.006 80.57 196.231 74.647 192.896 69.5929C189.562 64.5388 184.815 60.5767 179.246 58.1996C177.501 43.2382 164.934 31.5439 149.657 30.9375C146.419 25.2886 141.745 20.5963 136.108 17.3363C130.472 14.0764 124.074 12.3648 117.562 12.375C109.814 12.3997 102.264 14.8324 95.959 19.3364C89.6537 23.8404 84.9043 30.1929 82.368 37.5148C80.9449 37.7561 79.6455 37.9974 78.309 38.4801C77.4973 36.3756 76.46 34.3653 75.2152 32.4844L88.9453 18.9461L80.0477 10.0547L66.5156 23.7847C63.2395 21.5537 59.5625 19.9778 55.6875 19.1441V0H43.3125ZM49.5 30.9375C53.8144 30.9348 57.9939 32.4415 61.314 35.1967C64.6342 37.9518 66.8859 41.7817 67.6789 46.0226C65.172 48.9902 63.3848 52.4969 62.4566 56.2691C55.1981 57.59 48.6683 61.507 44.0859 67.289C40.2699 66.1368 36.9283 63.7826 34.559 60.577C32.1896 57.3714 30.9194 53.4861 30.9375 49.5C30.9375 39.1792 39.1792 30.9375 49.5 30.9375Z" fill="#27AE60"/>
</svg>
