<svg xmlns="http://www.w3.org/2000/svg" viewBox="0 0 711.2 717.5">
  <defs>
    <style>
      .cls-1 {
        fill: #024f28;
      }
    </style>
  </defs>
  <g id="Layer_2" data-name="Layer 2">
    <g id="Layer_1-2" data-name="Layer 1">
      <g>
        <path class="cls-1" d="M332.8,435.8c1-3,2.1-5.8,3-8.7,3.3-9.9,6.5-19.9,9.7-29.7s6.9-20.8,10.4-31.2l.6-1.8a2.4,2.4,0,0,1,1.9-1.8l1-.2,38.1-10.1,46.9-12.7,17.1-4.5,2.4-.5a13.2,13.2,0,0,1-.8,2.2L451,359.6,434.8,390c-4.7,8.7-9.4,17.4-14,26.1l-7.5,14.2a7.3,7.3,0,0,0-.5,1.2,14.3,14.3,0,0,0,2.3-.3l54.5-14.6,8.7-2.3h1.5v.7c-.1.1-.1.3-.2.5q-74.2,98.3-148.4,196.7c-.1.2-.4.3-.8.7a3.9,3.9,0,0,1,.1-1.6c.9-3.1,1.9-6.1,2.9-9.1,4-11.9,8-23.9,11.9-35.8,4.5-13.5,8.9-27,13.4-40.5,1.5-4.7,3.1-9.4,4.7-14.2.2-.5.2-1,.4-1.7h-3.1c-3.3.1-6.5.3-9.8.3a241.9,241.9,0,0,1-25.5-1.3,182.2,182.2,0,0,1-33.5-6.6,172.8,172.8,0,0,1-42.6-19.5,186.1,186.1,0,0,1-20.9-15.6,206,206,0,0,1-17-16.7,181.4,181.4,0,0,1-15-19,165.6,165.6,0,0,1-10.6-17.7,150.8,150.8,0,0,1-9.1-21.1,176.4,176.4,0,0,1-8.6-35.1,211.8,211.8,0,0,1-2-38.2,183.5,183.5,0,0,1,5.8-41,177.6,177.6,0,0,1,10.3-29.2,167.6,167.6,0,0,1,13.6-24.1,199.8,199.8,0,0,1,35.7-39.3,183.6,183.6,0,0,1,28.9-19.6,176.2,176.2,0,0,1,65.1-19.7,223.8,223.8,0,0,1,36.6-.8,198.9,198.9,0,0,1,38.4,5.7,205.2,205.2,0,0,1,34.8,12.2c3.1,1.4,6,2.9,9,4.5s9,4.6,13.7,6.6l15.9,7.1a153.7,153.7,0,0,0,20.5,7.7,67,67,0,0,0,19.9,2.4,69.8,69.8,0,0,0,28-6l1.8-.7a1.8,1.8,0,0,1-.7,1.8c-4.3,4.7-8.5,9.4-12.8,14-8.3,8.8-17,17.1-26.1,25l-12,10.2a340.8,340.8,0,0,1-31.6,23.1,328,328,0,0,1-29.4,16.8c-37.1,18.3-73.7,28.4-114.2,17.3-7.5-2.1-20.5-7.1-27.1-11.4-5.1-3.3-16.1-10.8-17.2-17.2,1.9-8.8,10.6-20.7,15.2-25.9a114.2,114.2,0,0,1,22.7-19.4,116.6,116.6,0,0,1,61.8-18.3,114.2,114.2,0,0,1,21.9,1.7l32.1,5.4a145.8,145.8,0,0,0,19.8,1.9c9.5.3,19,.2,28.5-.1a16.5,16.5,0,0,0,4.3-.6l-7.7-.7c-7.4-.6-14.7-1.5-22.1-2.6-5.1-.8-10.2-1.6-15.2-2.9s-7.8-2.1-11.7-3.3a200.5,200.5,0,0,0-34.2-7.4c-20.5-2.3-40.5-.9-60.1,5.8a118.1,118.1,0,0,0-23.3,11,89.7,89.7,0,0,0-12.1,9.2c-26.1,22.6-49,58.1-52.9,92.7a141.6,141.6,0,0,0,1.1,39A111.3,111.3,0,0,0,246,370a98.9,98.9,0,0,0,28.2,41.6,100.4,100.4,0,0,0,49,23.1l7.3,1.1Z"/>
        <g>
          <path class="cls-1" d="M103.1,197.4l-13.4,25a43.3,43.3,0,0,1-6.8,10A21.9,21.9,0,0,1,66.3,239a37.6,37.6,0,0,1-17.4-5c-9.5-5.1-15.5-10.8-18.1-17.2s-1.9-15.1,3-24.3l13.4-25,9.6,5.1-13.4,25c-2.7,5.1-2.6,9.7.2,14s6,6.2,11.6,9.2c11.6,6.2,19.7,4.9,24.4-3.8l7-13.1-13.1-7-8.4,15.5-9.8-5.3L70,179.7Z"/>
          <path class="cls-1" d="M170.5,124.5l-10.7,10.2-27.1-8.5-11.3,10.7,17.1,18L129,164,85.3,118.1l23.6-22.4q7.8-7.5,14.4-8.1c4.9-.5,9.8,1.8,14.6,6.8,6.8,7.3,7.9,14.5,3,21.7Zm-49.4-23.2c-1.8.6-4,2.2-6.7,4.8l-11.7,11.1,10.9,11.6,11.8-11.2c2.6-2.5,4.2-4.7,4.8-6.5s.4-5-1.9-7.4S123.6,100.5,121.1,101.3Z"/>
          <path class="cls-1" d="M246.8,82.1l-20.1,9.7a37.6,37.6,0,0,1-11,3.9,22,22,0,0,1-17.3-4.3c-4.5-3.3-8.2-8.1-11.2-14.4-4.6-9.6-6.2-17.8-4.6-24.5s7.4-13.3,16.9-17.9l19.8-9.5,4.8,9.9-19.5,9.5c-8.5,4.1-11.1,11.1-7,19.6l32.9-15.8,4.8,9.9-33,15.9c4.7,9.8,10.6,12.1,20.2,7.5L242,72.2Z"/>
          <path class="cls-1" d="M335,62.7,312.9,66a43.1,43.1,0,0,1-11.6.4,21.7,21.7,0,0,1-15.2-9.2c-3.4-4.6-5.5-10.3-6.5-17.1-1.6-10.6-.7-18.9,2.9-24.8s11-10.5,21.4-12.1L325.7,0l1.6,10.9-21.5,3.3c-9.3,1.3-13.9,7.3-12.5,16.7l36.2-5.3,1.6,10.8-36.2,5.4c1.6,10.7,6.4,14.7,17,13.1l21.5-3.2Z"/>
          <path class="cls-1" d="M432.4,71.6l-15.1-2.5L398.5,17.4l-7.2,47.4L378,62.6,388.4.1l16.4,2.7,17.8,49.1,6.9-45,13.3,2.2Z"/>
          <path class="cls-1" d="M516.2,108.1,496.4,97.8a42.6,42.6,0,0,1-9.7-6.4,22.1,22.1,0,0,1-6.8-16.5c-.1-5.6,1.6-11.4,4.8-17.6,4.9-9.5,10.5-15.7,16.9-18.3s15.1-2,24.4,2.8l19.5,10.1-5.1,9.9-19.3-10c-8.4-4.4-15.6-2.3-19.9,6.1l32.4,17-5.1,9.7L496,67.7c-5,9.6-3.4,15.7,6.1,20.6l19.3,10Z"/>
          <path class="cls-1" d="M591.4,174.2l-10.5-10.6,8-27.2-11-11.1-17.6,17.5-9.3-9.3,45-44.6,22.9,23c5.1,5.2,7.8,9.9,8.4,14.3s-1.6,9.8-6.6,14.7c-7.1,7-14.3,8.2-21.6,3.5Zm22.1-49.9c-.6-1.8-2.2-3.9-4.9-6.6l-11.4-11.5-11.3,11.2,11.4,11.5c2.6,2.6,4.8,4.2,6.6,4.7s5,.3,7.3-2S614.4,126.8,613.5,124.3Z"/>
          <path class="cls-1" d="M640.2,259.4l-6.6-13.1,10.8-11.9L632.2,210l-15.9,1.8L610,199.3l68.5-4.8,6.3,12.6Zm12.4-34L670.1,206l-25.8,2.8Z"/>
        </g>
        <g>
          <path class="cls-1" d="M51.4,436.1l-39.7,8.6-2.4-11L49,425.1l-3-13.9,9.5-2.1L63.9,448l-9.5,2Z"/>
          <path class="cls-1" d="M90.9,512.5l-9.1,4.4L71,494.3l-9.4,4.5,9.8,20.3-8.6,4.1L53,502.9l-9.4,4.6,11.2,23.3-8.9,4.3L29.8,501.7l45.3-21.9Z"/>
          <path class="cls-1" d="M94.7,587.2a16.8,16.8,0,0,0,13.7,6.2l-1,10.3q-12.9-.5-20.4-9.3c-5-5.9-7.2-12.4-6.7-19.4s3.6-12.9,9.4-17.7a24.9,24.9,0,0,1,19.2-6.1,26.1,26.1,0,0,1,17.8,9.5c5.3,6.3,7.3,13.6,6.1,22l-10.5-.3c1.1-5.6-.1-10.4-3.5-14.4a15.4,15.4,0,0,0-10.1-5.6,14.6,14.6,0,0,0-11.5,3.7,15.3,15.3,0,0,0-5.9,10.5A14.2,14.2,0,0,0,94.7,587.2Z"/>
          <path class="cls-1" d="M190.8,618.5l9.2,6.4-28.8,41.3-9.2-6.4,11.3-16.3-16.4-11.4-11.3,16.2-9.2-6.4,28.7-41.3,9.3,6.4-12.1,17.3,16.4,11.4Z"/>
          <path class="cls-1" d="M268.2,654.5l10.6,3.7-16.4,47.5-10.6-3.6-12.4-37.7-10.3,29.9-10.6-3.7L234.9,643l9.9,3.4,12.8,38.7Z"/>
          <path class="cls-1" d="M358,710.9c-5.3,4.8-11.7,6.9-19.1,6.6a25.8,25.8,0,0,1-18.5-8.3,24.8,24.8,0,0,1-6.7-18.9,24.6,24.6,0,0,1,8.5-18.2,27.5,27.5,0,0,1,37.5,1.8,26.2,26.2,0,0,1-1.7,37Zm-3-18.6a16.2,16.2,0,0,0-3.8-11.7,13.2,13.2,0,0,0-10.3-5.2,14.1,14.1,0,0,0-10.9,4.2,16.5,16.5,0,0,0-4.8,11.3,16,16,0,0,0,3.8,11.6,13.5,13.5,0,0,0,10.3,5.2,13.9,13.9,0,0,0,10.9-4.2A16.2,16.2,0,0,0,355,692.3Z"/>
          <path class="cls-1" d="M412.7,713.1l-10.1-49.3,11-2.3,8.1,39.5,21-4.3,2.1,9.8Z"/>
          <path class="cls-1" d="M523.1,667.9c-2.4,6.7-7,11.6-13.7,14.9a25.9,25.9,0,0,1-20.2,1.4,24.7,24.7,0,0,1-14.9-13.3,25,25,0,0,1-1.2-20A25.7,25.7,0,0,1,486.8,636a25.3,25.3,0,0,1,20.1-1.5c6.8,2.2,11.7,6.7,15,13.4A25,25,0,0,1,523.1,667.9Zm-11.5-15a16.4,16.4,0,0,0-8.9-8.5,13.5,13.5,0,0,0-11.6.4,13.7,13.7,0,0,0-7.5,8.9,17.3,17.3,0,0,0,10,20.6,13.5,13.5,0,0,0,11.6-.4,14.3,14.3,0,0,0,7.5-8.8A16.7,16.7,0,0,0,511.6,652.9Z"/>
          <path class="cls-1" d="M581.7,601.4l8.5-7.5L602,607.3c0,7.5-3.3,14.1-9.9,20s-11.8,7.2-18.8,6.8a24.8,24.8,0,0,1-18-8.8,26.1,26.1,0,0,1,2.2-37,27,27,0,0,1,18.9-7.1l1.2,10.1a24.6,24.6,0,0,0-7.4,1.1,15.7,15.7,0,0,0-5.3,3.3,14.8,14.8,0,0,0-5.2,10.4c-.3,4.1,1.2,7.9,4.3,11.5s6.8,5.5,10.8,5.7a13.2,13.2,0,0,0,10.3-3.4,19.2,19.2,0,0,0,5.8-8.1Z"/>
          <path class="cls-1" d="M595.7,548.8l6.7-9.1,40.5,30-6.7,9Z"/>
          <path class="cls-1" d="M637.6,476.2l9.1,4.2L636,503.1l9.4,4.4,9.6-20.4,8.7,4.1-9.6,20.4,9.4,4.4,11-23.3,9,4.2-15.8,33.5L622.2,509Z"/>
          <path class="cls-1" d="M661.1,431.9a4.6,4.6,0,0,0,3.1,2.3,4.2,4.2,0,0,0,3.9-1.3c1.1-1.1,2.7-3.9,4.8-8.3s4.6-7.8,7.4-9.9,6.4-2.7,10.9-1.8a13.6,13.6,0,0,1,9.7,7.2c2.1,3.8,2.6,8.5,1.5,13.9-1.6,7.8-5.9,14.2-13,19.3l-6.7-8.2c5.7-4.3,9.1-8.8,10-13.3a7.4,7.4,0,0,0-.4-5,4.1,4.1,0,0,0-3.1-2.5,4.3,4.3,0,0,0-3.9,1.1c-1.2,1.1-2.5,3.3-4.2,6.8-2.5,5.4-5.1,9.3-7.8,11.5s-6.5,2.8-11.2,1.9-7.9-3.4-9.8-7.3a21.1,21.1,0,0,1-1.2-13.3,32.3,32.3,0,0,1,3.7-9.6,28.4,28.4,0,0,1,6.5-7.6l7,7.2a21.5,21.5,0,0,0-7.6,12.3A7,7,0,0,0,661.1,431.9Z"/>
        </g>
        <circle class="cls-1" cx="24.3" cy="314.6" r="24.3"/>
        <circle class="cls-1" cx="686.9" cy="314.6" r="24.3"/>
        <circle class="cls-1" cx="686.9" cy="314.6" r="24.3"/>
      </g>
    </g>
  </g>
</svg>
