<svg width="80" height="72" viewBox="0 0 80 72" fill="none" xmlns="http://www.w3.org/2000/svg">
<path d="M40 16V8C40 3.6 36.4 0 32 0H8C3.6 0 0 3.6 0 8V64C0 68.4 3.6 72 8 72H72C76.4 72 80 68.4 80 64V24C80 19.6 76.4 16 72 16H40ZM16 64H8V56H16V64ZM16 48H8V40H16V48ZM16 32H8V24H16V32ZM16 16H8V8H16V16ZM32 64H24V56H32V64ZM32 48H24V40H32V48ZM32 32H24V24H32V32ZM32 16H24V8H32V16ZM68 64H40V56H48V48H40V40H48V32H40V24H68C70.2 24 72 25.8 72 28V60C72 62.2 70.2 64 68 64ZM64 32H56V40H64V32ZM64 48H56V56H64V48Z" fill="#199958"/>
</svg>
