<svg width="32" height="32" viewBox="0 0 32 32" fill="none" xmlns="http://www.w3.org/2000/svg">
<path d="M28.3434 16.2286H15.7715V3.65673C15.7715 3.50204 15.6449 3.37548 15.4902 3.37548H14.5762C12.7315 3.3736 10.9045 3.73598 9.20022 4.44184C7.4959 5.1477 5.94773 6.18315 4.64453 7.48876C3.36145 8.76788 2.33935 10.2843 1.63516 11.9536C0.903906 13.6868 0.53125 15.5255 0.53125 17.4239C0.53125 19.3224 0.903906 21.1575 1.63516 22.8907C2.3418 24.5606 3.3543 26.0653 4.64453 27.3556C5.93477 28.6458 7.43594 29.6583 9.10938 30.3649C10.8396 31.099 12.7003 31.4756 14.5797 31.4724C16.4244 31.4742 18.2513 31.1119 19.9556 30.406C21.66 29.7001 23.2081 28.6647 24.5113 27.3591C25.8016 26.0688 26.8141 24.5677 27.5207 22.8942C28.2547 21.1641 28.6314 19.3034 28.6281 17.4239V16.5099C28.6246 16.3552 28.498 16.2286 28.3434 16.2286ZM31.4336 14.2774L31.3422 13.286C31.0434 10.0517 29.609 7.00009 27.2957 4.69736C24.9846 2.38817 21.9391 0.959305 18.6859 0.657904L17.691 0.566497C17.5258 0.552435 17.3852 0.678998 17.3852 0.844232V14.3337C17.3852 14.4884 17.5117 14.6149 17.6664 14.6149L31.1523 14.5798C31.3176 14.5763 31.4477 14.4392 31.4336 14.2774Z" fill="#444444"/>
</svg>
