<svg width="32" height="32" viewBox="0 0 32 32" fill="none" xmlns="http://www.w3.org/2000/svg">
<path d="M31.75 5.21575L30.1593 3.625L26.3905 7.39375C25.8524 6.74496 25.255 6.14763 24.6062 5.6095L28.375 1.84075L26.7843 0.25L22.723 4.31125C20.1535 2.82696 17.166 2.23216 14.2239 2.61914C11.2819 3.00613 8.54978 4.35325 6.45151 6.45151C4.35325 8.54978 3.00613 11.2819 2.61914 14.2239C2.23216 17.166 2.82696 20.1535 4.31125 22.723L0.25 26.7843L1.84075 28.375L5.6095 24.6062C6.14763 25.255 6.74496 25.8524 7.39375 26.3905L3.625 30.1593L5.21575 31.75L9.277 27.6887C11.8465 29.173 14.834 29.7678 17.7761 29.3809C20.7181 28.9939 23.4502 27.6467 25.5485 25.5485C27.6467 23.4502 28.9939 20.7181 29.3809 17.7761C29.7678 14.834 29.173 11.8465 27.6887 9.277L31.75 5.21575ZM16 27.25C13.775 27.25 11.5999 26.5902 9.74984 25.354C7.89978 24.1179 6.45784 22.3609 5.60636 20.3052C4.75487 18.2495 4.53208 15.9875 4.96617 13.8052C5.40025 11.6229 6.47171 9.61839 8.04505 8.04505C9.61839 6.47171 11.6229 5.40025 13.8052 4.96617C15.9875 4.53208 18.2495 4.75487 20.3052 5.60636C22.3609 6.45784 24.1179 7.89978 25.354 9.74984C26.5902 11.5999 27.25 13.775 27.25 16C27.2467 18.9827 26.0604 21.8423 23.9513 23.9513C21.8423 26.0604 18.9827 27.2467 16 27.25Z" fill="#444444"/>
</svg>
